<svg width="60" height="60" viewBox="0 0 60 60" fill="none" xmlns="http://www.w3.org/2000/svg">
<g clip-path="url(#clip0_241_101)">
<path d="M30 60C46.5685 60 60 46.5685 60 30C60 13.4315 46.5685 0 30 0C13.4315 0 0 13.4315 0 30C0 46.5685 13.4315 60 30 60Z" fill="white"/>
<path d="M26.1443 26.556C21.6374 26.6526 18 30.2987 18 34.7719C18 36.933 18.8512 38.9011 20.2412 40.374C21.766 41.9857 23.9398 43 26.3464 43C30.9451 43 34.6927 39.3115 34.6927 34.7719V25.6867C36.4685 26.9424 38.6486 27.6848 41 27.6848V23.2178C40.5407 23.2178 40.0999 23.1695 39.6774 23.0789C38.3179 22.7952 37.124 22.0708 36.2422 21.0747C35.2746 19.9821 34.693 18.5575 34.693 17H33.4806M36.2422 21.0747C36.2187 21.0596 36.1952 21.0443 36.1718 21.0289M23.2602 36.9572C22.8071 36.3415 22.5376 35.587 22.5376 34.7659C22.5376 32.6954 24.2461 31.0111 26.3465 31.0111C26.7384 31.0111 27.118 31.0774 27.4732 31.1861V26.6225C27.1058 26.5741 26.7323 26.5439 26.3465 26.5439C26.2791 26.5439 25.7365 26.5795 25.6692 26.5795M33.4741 17H30.1552L30.1491 34.9107C30.0756 36.915 28.3977 38.5268 26.3464 38.5268C25.0727 38.5268 23.9521 37.905 23.254 36.9633" stroke="#D88B72" stroke-width="1.2" stroke-linejoin="round"/>
</g>
<defs>
<clipPath id="clip0_241_101">
<rect width="60" height="60" fill="white"/>
</clipPath>
</defs>
</svg>
